<svg id="QUASH" xmlns="http://www.w3.org/2000/svg" xmlns:xlink="http://www.w3.org/1999/xlink" viewBox="0 0 1977 1018"><defs><style>.cls-1,.cls-65{fill:#fff;}.cls-2{fill:#fec9a3;}.cls-3{fill:#e0e0de;}.cls-4{fill:#4db7e5;}.cls-5{fill:#48add9;}.cls-6{fill:#348fd9;}.cls-7{fill:#2a71ad;}.cls-8{fill:#62a9e6;}.cls-9{fill:#ffb531;}.cls-10{fill:#ffa912;}.cls-11{fill:#e8770c;}.cls-12{fill:#60d1e0;}.cls-13{fill:#e94f4f;}.cls-14{fill:#e04646;}.cls-15{fill:#c2c2c0;}.cls-16{fill:#5ac6d4;}.cls-17{font-size:36px;}.cls-17,.cls-84{font-family:MyriadPro-Regular, Myriad Pro;}.cls-18{letter-spacing:-0.01em;}.cls-19{letter-spacing:0em;}.cls-20{fill:#ffb782;}.cls-21{fill:#de4c3c;}.cls-22{fill:#7a4930;}.cls-23{fill:#4398d1;}.cls-24{fill:#3e8cc7;}.cls-25{fill:#5eb3d1;}.cls-26{fill:#88b337;}.cls-27{fill:#6b962a;}.cls-28{fill:#f2a46f;}.cls-29{fill:url(#New_Gradient_Swatch_2);}.cls-30{fill:url(#New_Gradient_Swatch_3);}.cls-31{fill:#dbd9dc;}.cls-32{fill:#ff8188;}.cls-33{fill:#fcc062;}.cls-34{fill:#fdd089;}.cls-35{fill:#674735;}.cls-36{fill:#895f47;}.cls-37{fill:#b67f5f;}.cls-38{fill:#ffe17d;}.cls-39{fill:#bfa95e;}.cls-40{fill:#ffaf2e;}.cls-41{fill:#ffc729;}.cls-42{fill:#ffb41d;}.cls-43{fill:#dad8db;}.cls-44{fill:#eceaec;}.cls-45{fill:#e89e0c;}.cls-46{fill:#f7be1c;}.cls-47{fill:#857e87;}.cls-48{fill:#6f6571;}.cls-49{fill:#fcbe10;}.cls-50{fill:#ffae0b;}.cls-51{fill:#acabb1;}.cls-52{fill:#5aaae7;}.cls-53{fill:#ff9811;}.cls-54{fill:#ffd422;}.cls-55{fill:#00ccb3;}.cls-56{fill:#00b39d;}.cls-57{fill:#ff5023;}.cls-58{fill:#898890;}.cls-59{fill:#1e81ce;}.cls-60{fill:#ffb125;}.cls-61{fill:#ff901d;}.cls-62{fill:#ff4c4c;}.cls-63{fill:#f33939;}.cls-64{fill:#ff6d3a;}.cls-65{font-size:12px;font-family:MyriadPro-Bold, Myriad Pro;font-weight:700;}.cls-66{fill:#0e9347;}.cls-67{fill:#0d8944;}.cls-68{fill:#3bb54a;}.cls-69{fill:#ffca5d;}.cls-70{fill:#f6b545;}.cls-71{fill:#ffcb5b;}.cls-72{fill:#ffe27a;}.cls-73{fill:#f19920;}.cls-74{fill:#e78825;}.cls-75{fill:#dd931d;}.cls-76{fill:#1e201d;}.cls-77{letter-spacing:-0.01em;}.cls-78{letter-spacing:0em;}.cls-79{letter-spacing:0em;}.cls-80{letter-spacing:-0.03em;}.cls-81{letter-spacing:-0.01em;}.cls-82{letter-spacing:0em;}.cls-83{letter-spacing:0em;}.cls-84{font-size:24px;}.cls-85{letter-spacing:-0.02em;}.cls-86{letter-spacing:0em;}.cls-87{letter-spacing:-0.01em;}.cls-88{letter-spacing:-0.03em;}.cls-89{letter-spacing:-0.01em;}.cls-90{fill:#ff4f19;}.cls-91{fill:#ee2500;}.cls-92{fill:#fff5cb;}.cls-93{fill:#ffdba9;}.cls-94{fill:#7ab5ea;}.cls-95{fill:#0d5cba;}.cls-96{fill:#ffb64c;}.cls-97{fill:#ffa81f;}.cls-98{fill:#60dd4e;}.cls-99{fill:#00c800;}.cls-100{letter-spacing:0.01em;}.cls-101{letter-spacing:-0.02em;}.cls-102{letter-spacing:-0.03em;}.cls-103{letter-spacing:-0.01em;}.cls-104{letter-spacing:-0.02em;}.cls-105{letter-spacing:-0.01em;}.cls-106{letter-spacing:0.01em;}.cls-107{letter-spacing:-0.01em;}.cls-108{letter-spacing:0em;}.cls-109{letter-spacing:0.01em;}.cls-110{letter-spacing:0.01em;}.cls-111{letter-spacing:0em;}.cls-112{letter-spacing:-0.01em;}.cls-113{letter-spacing:-0.01em;}.cls-114{letter-spacing:0em;}</style><linearGradient id="New_Gradient_Swatch_2" x1="187.35" y1="265.33" x2="196.72" y2="265.33" gradientUnits="userSpaceOnUse"><stop offset="0.36" stop-color="#0075f9"/><stop offset="0.65" stop-color="#0069e5"/><stop offset="0.99" stop-color="#005ed3"/></linearGradient><radialGradient id="New_Gradient_Swatch_3" cx="246.26" cy="253.25" r="599.34" gradientTransform="translate(172.58 245.85) scale(0.03 0.03)" gradientUnits="userSpaceOnUse"><stop offset="0.3" stop-color="#bf2502"/><stop offset="0.88" stop-color="#ff441a"/></radialGradient></defs><title>QUASH PROCESS</title><rect class="cls-1" width="1977" height="1018"/><g id="process"><path class="cls-2" d="M1525.76,775l14,16.85a13.77,13.77,0,0,1,3.2,8.83v57.07h-17.24Z" transform="translate(-2)"/><path class="cls-3" d="M1525.76,732.21a9,9,0,0,0-9-9h-57.93a9,9,0,0,0-9,9v8.27h75.86Z" transform="translate(-2)"/><path class="cls-4" d="M1449.9,740.48h75.86V837H1449.9Z" transform="translate(-2)"/><path class="cls-5" d="M1449.9,828.41V837h75.86V752.55Z" transform="translate(-2)"/><path class="cls-3" d="M1449.9,837v8.28a9,9,0,0,0,9,9h57.93a9,9,0,0,0,9-9V837Z" transform="translate(-2)"/><path class="cls-6" d="M1470.59,754.28h34.48a6.89,6.89,0,0,1,6.9,6.89v55.17a6.9,6.9,0,0,1-6.9,6.9h-34.48a6.9,6.9,0,0,1-6.9-6.9V761.17A6.89,6.89,0,0,1,1470.59,754.28Z" transform="translate(-2)"/><path class="cls-7" d="M1491.28,754.28h10.34v69h-10.34Z" transform="translate(-2)"/><path class="cls-8" d="M1474,802.55h6.9V812.9H1474Z" transform="translate(-2)"/><path class="cls-2" d="M1508.52,785.31a9.75,9.75,0,1,0-13.8,13.79l20.69,20.69-.31.52a31.82,31.82,0,0,0,.31,33.26v4.15h17.25V809.45Z" transform="translate(-2)"/><path class="cls-9" d="M1425.76,681.86H1343V668.07l41.38-13.79,41.38,13.79Z" transform="translate(-2)"/><path class="cls-9" d="M1343,712.9h82.76v13.79H1343Z" transform="translate(-2)"/><path class="cls-10" d="M1349.9,681.86h13.79v31H1349.9Z" transform="translate(-2)"/><path class="cls-10" d="M1377.48,681.86h13.8v31h-13.8Z" transform="translate(-2)"/><path class="cls-10" d="M1405.07,681.86h13.79v31h-13.79Z" transform="translate(-2)"/><path class="cls-11" d="M1349.9,681.86h13.79v6.9H1349.9Z" transform="translate(-2)"/><path class="cls-11" d="M1377.48,681.86h13.8v6.9h-13.8Z" transform="translate(-2)"/><path class="cls-11" d="M1405.07,681.86h13.79v6.9h-13.79Z" transform="translate(-2)"/><path class="cls-12" d="M1380.93,737h6.9v6.9h-6.9Z" transform="translate(-2)"/><path class="cls-12" d="M1380.93,750.83h6.9v6.89h-6.9Z" transform="translate(-2)"/><path class="cls-12" d="M1380.93,764.62h6.9v6.9h-6.9Z" transform="translate(-2)"/><path class="cls-12" d="M1443,692.21h6.9v6.89H1443Z" transform="translate(-2)"/><path class="cls-12" d="M1429.21,692.21h6.89v6.89h-6.89Z" transform="translate(-2)"/><path class="cls-12" d="M1456.79,692.21h6.9v6.89h-6.9Z" transform="translate(-2)"/><path class="cls-12" d="M1470.59,692.21h6.89v6.89h-6.89Z" transform="translate(-2)"/><path class="cls-12" d="M1484.38,692.21h6.9v6.89h-6.9Z" transform="translate(-2)"/><path class="cls-12" d="M1484.38,706h6.9v6.9h-6.9Z" transform="translate(-2)"/><path class="cls-6" d="M1343,799.1h82.76v55.18H1343Z" transform="translate(-2)"/><path class="cls-13" d="M1363.69,799.1H1343l6.9-17.24h17.24Z" transform="translate(-2)"/><path class="cls-13" d="M1405.07,799.1h-20.69V781.86h17.24Z" transform="translate(-2)"/><path class="cls-3" d="M1384.38,799.1h-20.69l3.45-17.24h17.24Z" transform="translate(-2)"/><path class="cls-3" d="M1425.76,799.1h-20.69l-3.45-17.24h17.24Z" transform="translate(-2)"/><path class="cls-14" d="M1343,799.1h20.69v3.45a10.35,10.35,0,1,1-20.69,0Z" transform="translate(-2)"/><path class="cls-14" d="M1384.38,799.1h20.69v3.45a10.35,10.35,0,1,1-20.69,0Z" transform="translate(-2)"/><path class="cls-15" d="M1363.69,799.1h20.69v3.45a10.35,10.35,0,1,1-20.69,0Z" transform="translate(-2)"/><path class="cls-15" d="M1405.07,799.1h20.69v3.45a10.35,10.35,0,1,1-20.69,0Z" transform="translate(-2)"/><path class="cls-12" d="M1356.79,826.69h24.14v13.79h-24.14Z" transform="translate(-2)"/><path class="cls-12" d="M1394.72,826.69H1412v27.59h-17.25Z" transform="translate(-2)"/><path class="cls-16" d="M1356.79,826.69h24.14v6.9h-24.14Z" transform="translate(-2)"/><path class="cls-16" d="M1394.72,826.69H1412v6.9h-17.25Z" transform="translate(-2)"/><text class="cls-17" transform="translate(365.53 98.13)">1. Submit O<tspan class="cls-18" x="174.42" y="0">r</tspan><tspan class="cls-19" x="185.83" y="0">der</tspan></text></g><g id="card"><g id="surface1"><path class="cls-20" d="M337.49,282.13,301.42,246V390.82H349.7V311.47A41.4,41.4,0,0,0,337.49,282.13Z" transform="translate(-2)"/><path class="cls-21" d="M177.89,364.43l-27.27-70.8a13.79,13.79,0,0,1,7.92-17.82l128.71-49.58a13.79,13.79,0,0,1,17.83,7.91l27.27,70.79a13.8,13.8,0,0,1-7.92,17.83L195.72,372.34A13.8,13.8,0,0,1,177.89,364.43Z" transform="translate(-2)"/><path class="cls-22" d="M314.9,259.64,160.57,319.46l10.28,26.68,154.34-59.79Z" transform="translate(-2)"/><path class="cls-23" d="M149.7,315V239.09a13.79,13.79,0,0,1,13.79-13.79H301.42a13.79,13.79,0,0,1,13.8,13.79V315a13.8,13.8,0,0,1-13.8,13.8H163.49A13.8,13.8,0,0,1,149.7,315Z" transform="translate(-2)"/><path class="cls-24" d="M301.42,225.3H286.77L183.32,328.75h118.1a13.8,13.8,0,0,0,13.8-13.8V239.09A13.79,13.79,0,0,0,301.42,225.3Z" transform="translate(-2)"/><path class="cls-25" d="M163.49,280.47h13.8v6.9h-13.8Z" transform="translate(-2)"/><path class="cls-25" d="M163.49,301.16h13.8v6.9h-13.8Z" transform="translate(-2)"/><path class="cls-25" d="M225.56,301.16h13.79v6.9H225.56Z" transform="translate(-2)"/><path class="cls-25" d="M184.18,280.47H198v6.9H184.18Z" transform="translate(-2)"/><path class="cls-25" d="M204.87,280.47h13.79v6.9H204.87Z" transform="translate(-2)"/><path class="cls-25" d="M225.56,280.47h13.79v6.9H225.56Z" transform="translate(-2)"/><path class="cls-25" d="M291.08,239.09H298v10.35h-6.89Z" transform="translate(-2)"/><path class="cls-25" d="M277.28,239.09h6.9v10.35h-6.9Z" transform="translate(-2)"/><path class="cls-25" d="M263.49,239.09h6.9v10.35h-6.9Z" transform="translate(-2)"/><path class="cls-25" d="M249.7,239.09h6.89v10.35H249.7Z" transform="translate(-2)"/><path class="cls-26" d="M287.63,390.82H349.7V425.3H287.63Z" transform="translate(-2)"/><path class="cls-20" d="M277.51,287.59a14.95,14.95,0,0,0-21.59,20.67l28.26,30.83a46.51,46.51,0,0,0,.94,47.71l2.51,4h44.83V342.54Z" transform="translate(-2)"/><path class="cls-27" d="M298,401.16h6.9v6.9H298Z" transform="translate(-2)"/><path class="cls-28" d="M329,342.54a3.43,3.43,0,0,1-2.44-1l-13.79-13.79a3.45,3.45,0,0,1,4.87-4.88l13.8,13.79a3.45,3.45,0,0,1-2.44,5.89Z" transform="translate(-2)"/></g><g id="Layer_12" data-name="Layer 12"><path class="cls-29" d="M196,269.13a3,3,0,0,1-2.16.91,2.87,2.87,0,0,1-1.55-.53l-.14-.12c-.3-.25-1-.9-1.7-1.64l-.33-.34h0l-2-2a2.84,2.84,0,0,1,0-3.82,3.07,3.07,0,0,1,2.17-.91,2.86,2.86,0,0,1,1.72.67l4.15,4.15a2.93,2.93,0,0,1,.58,1.58A3,3,0,0,1,196,269.13Z" transform="translate(-2)"/><path class="cls-30" d="M184.66,236.43l-.18-.05-.35-.09-.18,0-.22-.05-.21-.05-.32-.06-.52-.1-.37-.06-.26,0a17,17,0,0,0-2.27-.15l-.78,0-.76.05-.22,0-.21,0-.31,0-.2,0h0l-.3,0h0l-.39.07a17.51,17.51,0,0,0,3.18,34.73h.27a17.41,17.41,0,0,0,8.79-2.51h0c.35-.22.62-.4.8-.53l-1.93-1.93a3.25,3.25,0,0,1-.87-1.75,3.31,3.31,0,0,1,.16-1.6,11.7,11.7,0,0,1-7.23,2.5,12,12,0,0,1-5.17-1.38,13.11,13.11,0,0,1-2.28-1.52h0a11.33,11.33,0,0,1-4.22-8.78,11.68,11.68,0,0,1,11.68-11.68c6.82,0,11.62,6,11.68,11.68a11.5,11.5,0,0,1-2.48,7.07,3.25,3.25,0,0,1,1.6-.22,3.33,3.33,0,0,1,1.36.52,4.06,4.06,0,0,1,.61.44l1.81,1.85a18,18,0,0,0,2.16-4.65,19.67,19.67,0,0,0,.75-5A17.52,17.52,0,0,0,184.66,236.43Z" transform="translate(-2)"/></g></g><g id="merchant"><path class="cls-31" d="M301.33,809H270.76A22.77,22.77,0,0,0,248,831.76V859H388V831.76A22.77,22.77,0,0,0,365.24,809H334.67" transform="translate(-2)"/><path class="cls-32" d="M365.24,809H348v36.67H288V809H270.76a23,23,0,0,0-2.76.19V859H368V809.19A23,23,0,0,0,365.24,809Z" transform="translate(-2)"/><path class="cls-33" d="M301.33,792.33V809a16.67,16.67,0,0,0,33.34,0V792.33" transform="translate(-2)"/><path class="cls-34" d="M313,824.82A16.62,16.62,0,0,0,324.67,809V792.33H301.33V809A16.63,16.63,0,0,0,313,824.82Z" transform="translate(-2)"/><path class="cls-34" d="M278,759h-3.33a13.34,13.34,0,1,1,0-26.67H278" transform="translate(-2)"/><path class="cls-34" d="M358,732.33h3.33a13.34,13.34,0,1,1,0,26.67H358" transform="translate(-2)"/><path class="cls-33" d="M361.33,719v33.33a43.33,43.33,0,1,1-86.66,0V719Z" transform="translate(-2)"/><path class="cls-34" d="M313,795.36a43.33,43.33,0,0,0,38.33-43V719H274.67v33.33A43.33,43.33,0,0,0,313,795.36Z" transform="translate(-2)"/><path class="cls-35" d="M361.33,719l-20,26.67H294.67l-20-26.67a40,40,0,0,1,40-40h6.66A40,40,0,0,1,361.33,719Z" transform="translate(-2)"/><path class="cls-36" d="M311.33,679.17A40,40,0,0,0,274.67,719l20,26.67H328L348,719A40,40,0,0,0,311.33,679.17Z" transform="translate(-2)"/><path class="cls-36" d="M274.67,719h86.66a40,40,0,0,0-40-40h-6.66A40,40,0,0,0,274.67,719Z" transform="translate(-2)"/><path class="cls-37" d="M310.86,679.19A40,40,0,0,0,274.67,719H348A39.94,39.94,0,0,0,310.86,679.19Z" transform="translate(-2)"/><path class="cls-38" d="M241.33,752.33a26.67,26.67,0,1,1-26.66-26.66A26.67,26.67,0,0,1,241.33,752.33Z" transform="translate(-2)"/><path class="cls-38" d="M241.33,685.67A26.67,26.67,0,1,1,214.67,659,26.67,26.67,0,0,1,241.33,685.67Z" transform="translate(-2)"/><path class="cls-37" d="M318,782.33A13.35,13.35,0,0,1,304.67,769h6.66a6.67,6.67,0,0,0,13.34,0h6.66A13.35,13.35,0,0,1,318,782.33Z" transform="translate(-2)"/><path class="cls-39" d="M218,712.1" transform="translate(-2)"/><path class="cls-39" d="M211.33,712.1" transform="translate(-2)"/><g id="Layer_13" data-name="Layer 13"><path class="cls-40" d="M231,701.27a3,3,0,0,1-2.16.9,2.83,2.83,0,0,1-1.55-.52,1,1,0,0,1-.14-.12c-.3-.25-1-.9-1.7-1.64l-.33-.34h0l-2-2a2.85,2.85,0,0,1,0-3.83,3,3,0,0,1,2.17-.9,2.86,2.86,0,0,1,1.72.67l4.15,4.15a2.93,2.93,0,0,1,.58,1.57A3,3,0,0,1,231,701.27Z" transform="translate(-2)"/><path class="cls-40" d="M219.66,668.57l-.18-.05-.35-.1-.18,0-.22,0-.21-.05-.32-.07-.52-.09-.37-.06-.26,0a17,17,0,0,0-2.27-.15l-.78,0-.76.05-.22,0-.21,0-.31,0-.2,0h0l-.3,0h0l-.39.07a17.51,17.51,0,0,0,3.18,34.72h.27a17.42,17.42,0,0,0,8.79-2.52h0c.35-.22.62-.4.8-.53l-1.93-1.94a3.25,3.25,0,0,1-.87-1.74,3.31,3.31,0,0,1,.16-1.6,11.7,11.7,0,0,1-7.23,2.5,11.84,11.84,0,0,1-5.17-1.39,12.52,12.52,0,0,1-2.28-1.51h0a11.29,11.29,0,0,1-4.22-8.77,11.68,11.68,0,0,1,11.68-11.68c6.82,0,11.62,6,11.68,11.68a11.5,11.5,0,0,1-2.48,7.07,3.3,3.3,0,0,1,1.6-.23,3.49,3.49,0,0,1,1.36.53,4.54,4.54,0,0,1,.61.43l1.81,1.86a18,18,0,0,0,2.16-4.65,19.67,19.67,0,0,0,.75-5A17.5,17.5,0,0,0,219.66,668.57Z" transform="translate(-2)"/></g><g id="Layer_15" data-name="Layer 15"><path class="cls-40" d="M231,768.27a3,3,0,0,1-2.16.9,2.83,2.83,0,0,1-1.55-.52,1,1,0,0,1-.14-.12c-.3-.25-1-.9-1.7-1.64l-.33-.34h0l-2-2a2.85,2.85,0,0,1,0-3.83,3,3,0,0,1,2.17-.9,2.86,2.86,0,0,1,1.72.67l4.15,4.15a2.93,2.93,0,0,1,.58,1.57A3,3,0,0,1,231,768.27Z" transform="translate(-2)"/><path class="cls-40" d="M219.66,735.57l-.18-.05-.35-.1-.18,0-.22,0-.21-.05-.32-.07-.52-.09-.37-.06-.26,0a17,17,0,0,0-2.27-.15l-.78,0-.76.05-.22,0-.21,0-.31,0-.2,0h0l-.3,0h0l-.39.07a17.51,17.51,0,0,0,3.18,34.72h.27a17.42,17.42,0,0,0,8.79-2.52h0c.35-.22.62-.4.8-.53l-1.93-1.94a3.25,3.25,0,0,1-.87-1.74,3.31,3.31,0,0,1,.16-1.6,11.7,11.7,0,0,1-7.23,2.5,11.84,11.84,0,0,1-5.17-1.39,12.52,12.52,0,0,1-2.28-1.51h0a11.29,11.29,0,0,1-4.22-8.77,11.68,11.68,0,0,1,11.68-11.68c6.82,0,11.62,6,11.68,11.68a11.5,11.5,0,0,1-2.48,7.07,3.3,3.3,0,0,1,1.6-.23,3.49,3.49,0,0,1,1.36.53,4.54,4.54,0,0,1,.61.43l1.81,1.86a18,18,0,0,0,2.16-4.65,19.67,19.67,0,0,0,.75-5A17.5,17.5,0,0,0,219.66,735.57Z" transform="translate(-2)"/></g></g><g id="gateway"><path class="cls-41" d="M1544.86,243.29a3.18,3.18,0,0,0,0-6.35h-34.92v-9.53h34.92a3.18,3.18,0,0,0,0-6.35h-34.92V186.14a3.18,3.18,0,0,0-6.35,0v34.92h-9.53V186.14a3.18,3.18,0,0,0-6.35,0v34.92h-9.52V186.14a3.18,3.18,0,0,0-6.35,0v34.92h-9.52V186.14a3.18,3.18,0,0,0-6.35,0v34.92h-9.53V186.14a3.18,3.18,0,0,0-6.35,0v34.92h-34.92a3.18,3.18,0,0,0,0,6.35h34.93v9.53h-34.93a3.18,3.18,0,0,0,0,6.35h34.93v9.52h-34.93a3.18,3.18,0,0,0,0,6.35h34.93v9.52h-34.93a3.18,3.18,0,0,0,0,6.35h34.93v9.53h-34.93a3.17,3.17,0,0,0,0,6.34h34.93v34.93a3.17,3.17,0,0,0,6.34,0V290.9H1456v34.93a3.18,3.18,0,0,0,6.35,0V290.9h9.52v34.93a3.18,3.18,0,0,0,6.35,0V290.9h9.52v34.93a3.18,3.18,0,0,0,6.35,0V290.9h9.53v34.93a3.18,3.18,0,0,0,6.35,0V290.9h34.92a3.17,3.17,0,1,0,0-6.34h-34.92V275h34.92a3.18,3.18,0,0,0,0-6.35h-34.92v-9.52h34.92a3.18,3.18,0,0,0,0-6.35h-34.92v-9.52Z" transform="translate(-2)"/><polygon class="cls-42" points="1530.16 284.56 1507.94 284.56 1507.94 275.03 1530.16 275.03 1530.16 268.68 1507.94 268.68 1507.94 259.16 1530.16 259.16 1530.16 252.81 1507.94 252.81 1507.94 243.29 1530.16 243.29 1530.16 236.94 1507.94 236.94 1507.94 227.41 1530.16 227.41 1530.16 221.06 1507.94 221.06 1507.94 198.84 1501.59 198.84 1501.59 221.06 1492.06 221.06 1492.06 198.84 1485.71 198.84 1485.71 221.06 1476.19 221.06 1476.19 198.84 1469.84 198.84 1469.84 221.06 1460.32 221.06 1460.32 198.84 1453.97 198.84 1453.97 221.06 1444.44 221.06 1444.44 198.84 1438.1 198.84 1438.1 221.06 1415.87 221.06 1415.87 227.41 1438.1 227.41 1438.1 236.94 1415.87 236.94 1415.87 243.29 1438.1 243.29 1438.1 252.81 1415.87 252.81 1415.87 259.16 1438.1 259.16 1438.1 268.68 1415.87 268.68 1415.87 275.03 1438.1 275.03 1438.1 284.56 1415.87 284.56 1415.87 290.9 1438.1 290.9 1438.1 313.13 1444.44 313.13 1444.44 290.9 1453.97 290.9 1453.97 313.13 1460.32 313.13 1460.32 290.9 1469.84 290.9 1469.84 313.13 1476.19 313.13 1476.19 290.9 1485.71 290.9 1485.71 313.13 1492.06 313.13 1492.06 290.9 1501.59 290.9 1501.59 313.13 1507.94 313.13 1507.94 290.9 1530.16 290.9 1530.16 284.56"/><path class="cls-43" d="M1549.35,191.27l-6.84,1.71,16.36-16.36-4.49-4.49L1538,188.49l1.71-6.84a3.17,3.17,0,1,0-6.16-1.54l-4.49,18a3.17,3.17,0,0,0,3.08,4,2.91,2.91,0,0,0,.77-.1l18-4.49a3.17,3.17,0,1,0-1.54-6.16Z" transform="translate(-2)"/><path class="cls-44" d="M1509.94,306.78H1440.1a15.88,15.88,0,0,1-15.88-15.88V221.06a15.88,15.88,0,0,1,15.88-15.87h69.84a15.88,15.88,0,0,1,15.87,15.87v69.85A15.88,15.88,0,0,1,1509.94,306.78Z" transform="translate(-2)"/><path class="cls-45" d="M1509.94,294.08H1440.1a3.18,3.18,0,0,1-3.18-3.18V221.06a3.17,3.17,0,0,1,3.18-3.17h69.84a3.17,3.17,0,0,1,3.17,3.17v69.85A3.17,3.17,0,0,1,1509.94,294.08Z" transform="translate(-2)"/><path class="cls-46" d="M1503.59,287.73h-57.15a3.17,3.17,0,0,1-3.17-3.17V227.41a3.17,3.17,0,0,1,3.17-3.17h57.15a3.17,3.17,0,0,1,3.17,3.17v57.15A3.17,3.17,0,0,1,1503.59,287.73Z" transform="translate(-2)"/><path class="cls-43" d="M1440.1,300.43a9.53,9.53,0,0,1-9.53-9.53V208.37a15.93,15.93,0,0,0-6.35,12.69V290.9a15.88,15.88,0,0,0,15.88,15.88h69.84a16,16,0,0,0,12.7-6.35Z" transform="translate(-2)"/><path class="cls-47" d="M1459.14,229.31V217.89h-6.35V229a5.88,5.88,0,0,1-1.63,3.86,6.35,6.35,0,1,0,11.16,4.13,6.29,6.29,0,0,0-1.72-4.32A4.83,4.83,0,0,1,1459.14,229.31Z" transform="translate(-2)"/><rect class="cls-48" x="1450.79" y="217.89" width="6.35" height="6.35"/><path class="cls-47" d="M1497.24,242V217.89h-6.35v23.76a6,6,0,0,1-1.63,3.86,6.35,6.35,0,1,0,9.43-.19A4.86,4.86,0,0,1,1497.24,242Z" transform="translate(-2)"/><rect class="cls-48" x="1488.89" y="217.89" width="6.35" height="6.35"/><path class="cls-47" d="M1485.82,278.21h27.29v-6.35h-26.93a6,6,0,0,1-3.87-1.63,6.32,6.32,0,0,0-10.32,3.43,6.35,6.35,0,0,0,6.2,7.72,6.22,6.22,0,0,0,4.31-1.72A4.91,4.91,0,0,1,1485.82,278.21Z" transform="translate(-2)"/><rect class="cls-48" x="1504.76" y="271.86" width="6.35" height="6.35"/><path class="cls-47" d="M1475,217.89v18.28a6.36,6.36,0,0,1-1.86,4.49L1458.84,255a3.27,3.27,0,0,1-2.5,1,5.72,5.72,0,0,0-4.43,1.82,6.29,6.29,0,0,0-2.27,5.06,6.36,6.36,0,0,0,5.78,5.78,6.26,6.26,0,0,0,5.06-2.27,5.72,5.72,0,0,0,1.82-4.43,3.29,3.29,0,0,1,1-2.5l14.31-14.31a12.71,12.71,0,0,0,3.73-9V217.89Z" transform="translate(-2)"/><rect class="cls-48" x="1473.02" y="217.89" width="6.35" height="6.35"/><circle class="cls-49" cx="1571.43" cy="157.57" r="28.57"/><path class="cls-50" d="M1578.19,181.38a28.57,28.57,0,0,1-22.44-46.25,28.57,28.57,0,1,0,40.12,40.12A28.41,28.41,0,0,1,1578.19,181.38Z" transform="translate(-2)"/><g id="qpay"><path class="cls-1" d="M1591,171.27a3,3,0,0,1-2.16.9,2.83,2.83,0,0,1-1.55-.52l-.14-.12c-.3-.25-1-.9-1.7-1.64l-.33-.34h0l-2-2a2.85,2.85,0,0,1,0-3.83,3,3,0,0,1,2.17-.9,2.86,2.86,0,0,1,1.72.67l4.15,4.15a2.93,2.93,0,0,1,.58,1.57A3,3,0,0,1,1591,171.27Z" transform="translate(-2)"/><path class="cls-1" d="M1579.66,138.57l-.18,0-.35-.1-.18,0-.22,0-.21-.05-.32-.07-.52-.09-.37-.06-.26,0a17,17,0,0,0-2.27-.15l-.78,0-.76,0-.22,0-.21,0-.31,0-.2,0h0l-.3,0h0l-.39.07a17.51,17.51,0,0,0,3.18,34.72h.27a17.42,17.42,0,0,0,8.79-2.52h0c.35-.22.62-.4.8-.53l-1.93-1.94a3.25,3.25,0,0,1-.87-1.74,3.31,3.31,0,0,1,.16-1.6,11.7,11.7,0,0,1-7.23,2.5,11.84,11.84,0,0,1-5.17-1.39,12.52,12.52,0,0,1-2.28-1.51h0a11.29,11.29,0,0,1-4.22-8.77,11.68,11.68,0,0,1,11.68-11.68c6.82,0,11.62,6,11.68,11.68a11.5,11.5,0,0,1-2.48,7.07,3.3,3.3,0,0,1,1.6-.23,3.49,3.49,0,0,1,1.36.53,4.54,4.54,0,0,1,.61.43l1.81,1.86a18,18,0,0,0,2.16-4.65,19.67,19.67,0,0,0,.75-5A17.5,17.5,0,0,0,1579.66,138.57Z" transform="translate(-2)"/></g></g><g id="store"><path class="cls-51" d="M974.1,239.31H781V253.1a6.91,6.91,0,0,0,6.9,6.9H974.1a6.91,6.91,0,0,0,6.9-6.9V239.31Z" transform="translate(-2)"/><path class="cls-52" d="M967.21,122.07H794.79a6.91,6.91,0,0,0-6.89,6.9V239.31H974.1V129A6.91,6.91,0,0,0,967.21,122.07Z" transform="translate(-2)"/><path class="cls-53" d="M812,108.28V225.52H950V108.28Z" transform="translate(-2)"/><path class="cls-54" d="M922.38,184.14A41.38,41.38,0,1,1,881,142.76a40.49,40.49,0,0,1,10.34,1.31A41.38,41.38,0,0,1,922.38,184.14Z" transform="translate(-2)"/><path class="cls-55" d="M812,60H950V80.69H812Z" transform="translate(-2)"/><path class="cls-56" d="M950,80.69l13.79,27.59H798.24L812,80.69Z" transform="translate(-2)"/><path class="cls-55" d="M963.76,122.07V129a13.8,13.8,0,0,1-27.59,0V108.28h27.59Z" transform="translate(-2)"/><path class="cls-55" d="M908.59,108.28V129a13.79,13.79,0,0,1-13.8,13.79,12.36,12.36,0,0,1-3-.35A13.74,13.74,0,0,1,881,129V108.28Z" transform="translate(-2)"/><path class="cls-55" d="M853.41,108.28V129a13.79,13.79,0,1,1-27.58,0V108.28Z" transform="translate(-2)"/><path class="cls-57" d="M936.17,108.28V129a13.79,13.79,0,1,1-27.58,0V108.28Z" transform="translate(-2)"/><path class="cls-57" d="M881,129a13.8,13.8,0,0,1-27.59,0V108.28H881Z" transform="translate(-2)"/><path class="cls-57" d="M825.83,108.28V129a13.8,13.8,0,0,1-27.59,0V108.28Z" transform="translate(-2)"/><path class="cls-58" d="M863.76,239.31h34.48v6.9a3.45,3.45,0,0,1-3.45,3.45H867.21a3.45,3.45,0,0,1-3.45-3.45Z" transform="translate(-2)"/><path class="cls-59" d="M798.24,222.07H963.76V229H798.24Z" transform="translate(-2)"/><g id="Layer_9" data-name="Layer 9"><path class="cls-1" d="M903.9,207.07a4.27,4.27,0,0,1-3.09,1.3,4.08,4.08,0,0,1-2.21-.75l-.21-.17c-.43-.36-1.36-1.29-2.42-2.35-.15-.16-.32-.32-.48-.48h0c-1-1-2-2.08-2.86-2.92a4,4,0,0,1,0-5.46,4.36,4.36,0,0,1,3.09-1.3,4.09,4.09,0,0,1,2.46,1l5.93,5.93a4.09,4.09,0,0,1,.83,2.25A4.21,4.21,0,0,1,903.9,207.07Z" transform="translate(-2)"/><path class="cls-1" d="M887.75,160.36l-.25-.07-.51-.14-.26-.06-.3-.07-.3-.07-.46-.09-.74-.14-.54-.08-.36,0a24.87,24.87,0,0,0-3.25-.21l-1.12,0-1.08.07-.31,0-.31,0-.43.05-.29,0h0l-.44.06h0l-.55.1a25,25,0,0,0,4.53,49.61h.39a24.82,24.82,0,0,0,12.55-3.6h0c.51-.31.89-.58,1.16-.76l-2.76-2.76a4.56,4.56,0,0,1-1-4.78,16.69,16.69,0,0,1-10.33,3.57,16.94,16.94,0,0,1-7.38-2,17.89,17.89,0,0,1-3.26-2.16h0a16.14,16.14,0,0,1-6-12.53,16.68,16.68,0,0,1,16.68-16.69c9.74,0,16.6,8.52,16.69,16.69a16.39,16.39,0,0,1-3.54,10.09,4.81,4.81,0,0,1,2.29-.32,5.06,5.06,0,0,1,1.93.75,7.22,7.22,0,0,1,.88.62l2.59,2.66a25.83,25.83,0,0,0,3.07-6.64,28,28,0,0,0,1.08-7.15A25,25,0,0,0,887.75,160.36Z" transform="translate(-2)"/></g></g><g id="bank"><path class="cls-60" d="M756.19,761.52a2.46,2.46,0,0,0,2.46-2.46V748.83h2.47a2.46,2.46,0,0,0,2.46-2.46V733h-44v13.33a2.46,2.46,0,0,0,2.46,2.46h2.47v10.23a2.46,2.46,0,0,0,2.46,2.46h4.27v83H727a2.46,2.46,0,0,0-2.46,2.46v10.23h-2.47a2.46,2.46,0,0,0-2.46,2.46V873h44V859.62a2.46,2.46,0,0,0-2.46-2.46h-2.47V846.93a2.46,2.46,0,0,0-2.46-2.46h-4.27v-83Z" transform="translate(-2)"/><path class="cls-61" d="M741.6,873h22V859.62a2.46,2.46,0,0,0-2.46-2.46h-2.47V846.93a2.46,2.46,0,0,0-2.46-2.46h-4.27v-83h4.27a2.46,2.46,0,0,0,2.46-2.46V748.83h2.47a2.46,2.46,0,0,0,2.46-2.46V733h-22Z" transform="translate(-2)"/><path class="cls-62" d="M944.83,709.66l-120-77.23a5.13,5.13,0,0,0-5.58,0l-120,77.23a4.72,4.72,0,0,0,2.56,8.68H942.27A4.72,4.72,0,0,0,944.83,709.66Z" transform="translate(-2)"/><path class="cls-63" d="M824.79,643.73a5.17,5.17,0,0,0-5.58,0l-116,74.61H940.75Z" transform="translate(-2)"/><path class="cls-60" d="M818.54,654.7l-98.92,63.64H924.38L825.46,654.7A6.38,6.38,0,0,0,818.54,654.7Z" transform="translate(-2)"/><path class="cls-60" d="M836.59,761.52a2.46,2.46,0,0,0,2.46-2.46V748.83h2.47a2.46,2.46,0,0,0,2.46-2.46V733H800v13.33a2.46,2.46,0,0,0,2.46,2.46H805v10.23a2.46,2.46,0,0,0,2.46,2.46h4.27v83h-4.27a2.46,2.46,0,0,0-2.46,2.46v10.23h-2.47a2.46,2.46,0,0,0-2.46,2.46V873h44V859.62a2.46,2.46,0,0,0-2.46-2.46h-2.47V846.93a2.46,2.46,0,0,0-2.46-2.46h-4.27v-83Z" transform="translate(-2)"/><path class="cls-60" d="M917,761.52a2.46,2.46,0,0,0,2.46-2.46V748.83h2.47a2.46,2.46,0,0,0,2.46-2.46V733h-44v13.33a2.46,2.46,0,0,0,2.46,2.46h2.47v10.23a2.46,2.46,0,0,0,2.46,2.46h4.27v83h-4.27a2.46,2.46,0,0,0-2.46,2.46v10.23h-2.47a2.46,2.46,0,0,0-2.46,2.46V873h44V859.62a2.46,2.46,0,0,0-2.46-2.46h-2.47V846.93a2.46,2.46,0,0,0-2.46-2.46h-4.27v-83Z" transform="translate(-2)"/><path class="cls-61" d="M822,873h22V859.62a2.46,2.46,0,0,0-2.46-2.46h-2.47V846.93a2.46,2.46,0,0,0-2.46-2.46h-4.27v-83h4.27a2.46,2.46,0,0,0,2.46-2.46V748.83h2.47a2.46,2.46,0,0,0,2.46-2.46V733H822Z" transform="translate(-2)"/><path class="cls-61" d="M902.52,873h21.86V859.62a2.46,2.46,0,0,0-2.46-2.46h-2.47V846.93a2.46,2.46,0,0,0-2.46-2.46h-4.27v-83H917a2.46,2.46,0,0,0,2.46-2.46V748.83h2.47a2.46,2.46,0,0,0,2.46-2.46V733H902.52Z" transform="translate(-2)"/><path class="cls-64" d="M937.49,886.39h-231a7.72,7.72,0,0,1-7.72-7.72h0a7.72,7.72,0,0,1,7.72-7.72h231a7.72,7.72,0,0,1,7.72,7.72h0A7.72,7.72,0,0,1,937.49,886.39Z" transform="translate(-2)"/><path class="cls-62" d="M937.49,886.39h-231a7.72,7.72,0,0,1-7.72-7.72h0a7.72,7.72,0,0,1,7.72-7.72h231a7.72,7.72,0,0,1,7.72,7.72h0A7.72,7.72,0,0,1,937.49,886.39Z" transform="translate(-2)"/><path class="cls-63" d="M937.49,879.39h-231a7.72,7.72,0,0,1-6.87-4.22,7.64,7.64,0,0,0-.85,3.5h0a7.72,7.72,0,0,0,7.72,7.72h231a7.72,7.72,0,0,0,7.72-7.72h0a7.64,7.64,0,0,0-.85-3.5A7.72,7.72,0,0,1,937.49,879.39Z" transform="translate(-2)"/><rect class="cls-62" x="717.62" y="718.34" width="204.76" height="16.69"/><rect class="cls-63" x="717.62" y="726.69" width="204.76" height="8.35"/><path class="cls-61" d="M822.25,718.34H924.38L825.46,654.7a6.45,6.45,0,0,0-3.21-1Z" transform="translate(-2)"/><text class="cls-65" transform="translate(816.98 697.38)">+</text><g id="Layer_11" data-name="Layer 11"><path class="cls-1" d="M785.35,680l4.91,8.62a.86.86,0,0,1,.1.37l0,11.09a.65.65,0,0,0,.24.54l4,4a.79.79,0,0,0,1.35-.54c0-5.51,0-11,0-16.56a1,1,0,0,0-.1-.41l-3.72-6.53a1.16,1.16,0,0,0-.51-.33l-5.38-1.39A.79.79,0,0,0,785.35,680Z" transform="translate(-2)"/><path class="cls-1" d="M796.71,687.55v22.66a.65.65,0,0,0,.17.44l4.37,4.36a.62.62,0,0,0,1-.44V687.38a.61.61,0,0,0-.61-.61h-4.19A.77.77,0,0,0,796.71,687.55Z" transform="translate(-2)"/><path class="cls-1" d="M808.72,687.55v22.66a.65.65,0,0,1-.17.44L804.19,715a.62.62,0,0,1-1.05-.44V687.38a.61.61,0,0,1,.61-.61h4.19A.77.77,0,0,1,808.72,687.55Z" transform="translate(-2)"/><path class="cls-1" d="M820.15,680l-4.91,8.62a.86.86,0,0,0-.1.37l0,11.09a.65.65,0,0,1-.24.54l-4,4a.79.79,0,0,1-1.35-.54c0-5.51,0-11,0-16.56a1,1,0,0,1,.1-.41l3.72-6.53a.9.9,0,0,1,.48-.37l5.37-1.38A.82.82,0,0,1,820.15,680Z" transform="translate(-2)"/></g><g id="Layer_10" data-name="Layer 10"><path class="cls-1" d="M857.65,708a2.54,2.54,0,0,1-1.85.77,2.37,2.37,0,0,1-1.33-.45l-.13-.1c-.25-.21-.81-.77-1.45-1.41l-.28-.29h0l-1.71-1.75a2.42,2.42,0,0,1,0-3.28,2.66,2.66,0,0,1,1.86-.78,2.43,2.43,0,0,1,1.47.58l3.56,3.55a2.46,2.46,0,0,1-.15,3.16Z" transform="translate(-2)"/><path class="cls-1" d="M848,680l-.15,0-.31-.08-.15,0-.18,0-.18,0-.28-.05-.44-.08-.32-.05-.22,0a14,14,0,0,0-2-.13l-.67,0-.65,0-.19,0-.18,0-.26,0-.18,0h0l-.26,0h0l-.33.06a15,15,0,0,0,2.72,29.76H844a14.83,14.83,0,0,0,7.53-2.16h0l.69-.46-1.65-1.66a2.72,2.72,0,0,1-.61-2.86,10,10,0,0,1-6.2,2.14,10.16,10.16,0,0,1-4.43-1.19,10.87,10.87,0,0,1-2-1.29h0a9.66,9.66,0,0,1-3.62-7.52,10,10,0,0,1,10-10,10.25,10.25,0,0,1,10,10,9.85,9.85,0,0,1-2.12,6.06,2.8,2.8,0,0,1,1.37-.19,3,3,0,0,1,1.16.44,4.82,4.82,0,0,1,.53.38l1.55,1.59a15.54,15.54,0,0,0,1.85-4,17,17,0,0,0,.64-4.29A15,15,0,0,0,848,680Z" transform="translate(-2)"/></g></g><g id="money"><path class="cls-66" d="M968.18,906.45H831.82a6.83,6.83,0,0,1-6.82-6.81v-75a6.84,6.84,0,0,1,6.82-6.82H968.18a6.84,6.84,0,0,1,6.82,6.82v75A6.83,6.83,0,0,1,968.18,906.45Z" transform="translate(-2)"/><path class="cls-67" d="M951.14,879.18a22.81,22.81,0,0,0-19.09,9.89,25.37,25.37,0,0,0-11.6-3.07,23.85,23.85,0,0,0-23.52,20.45h71.25a6.93,6.93,0,0,0,6.82-5.79A24.28,24.28,0,0,0,951.14,879.18Z" transform="translate(-2)"/><path class="cls-68" d="M954.55,899.64H845.45A13.67,13.67,0,0,0,831.82,886V838.27a13.67,13.67,0,0,0,13.63-13.63h109.1a13.67,13.67,0,0,0,13.63,13.63V886A13.67,13.67,0,0,0,954.55,899.64Z" transform="translate(-2)"/><path class="cls-66" d="M951.14,879.18a22.81,22.81,0,0,0-19.09,9.89,25.37,25.37,0,0,0-11.6-3.07A23.4,23.4,0,0,0,899,899.64h55.57A13.6,13.6,0,0,1,967.84,886,24.65,24.65,0,0,0,951.14,879.18Z" transform="translate(-2)"/><ellipse class="cls-66" cx="898" cy="862.14" rx="27.27" ry="30.68"/><circle class="cls-66" cx="857.09" cy="862.14" r="6.82"/><circle class="cls-66" cx="938.91" cy="862.14" r="6.82"/><circle class="cls-69" cx="911.64" cy="909.86" r="23.86"/><circle class="cls-70" cx="942.32" cy="903.05" r="23.86"/><path class="cls-71" d="M944.32,879.18a23.87,23.87,0,1,0,23.86,23.87A23.72,23.72,0,0,0,944.32,879.18Zm0,40.91a17,17,0,1,1,17-17A16.88,16.88,0,0,1,944.32,920.09Z" transform="translate(-2)"/><path class="cls-70" d="M944.32,926.57h0a23.43,23.43,0,0,0,23.86-23.52h-.34a3.63,3.63,0,0,0-3.41,3.06A20.64,20.64,0,0,1,958,918.39a19.37,19.37,0,0,1-10.57,5.11A3.05,3.05,0,0,0,944.32,926.57Z" transform="translate(-2)"/><path class="cls-72" d="M944.32,879.52h0a23.44,23.44,0,0,0-23.87,23.53h.35a3.63,3.63,0,0,0,3.4-3.07,20.66,20.66,0,0,1,6.48-12.28,19.37,19.37,0,0,1,10.57-5.11A3.06,3.06,0,0,0,944.32,879.52Z" transform="translate(-2)"/><path class="cls-73" d="M929.66,905.43a16.88,16.88,0,0,1,17-17,16,16,0,0,1,10.91,4.09,17,17,0,0,0-30.34,10.57,16.35,16.35,0,0,0,6.14,13A16,16,0,0,1,929.66,905.43Z" transform="translate(-2)"/><path class="cls-71" d="M954.55,913.61a1.26,1.26,0,0,1-1-.34,1.64,1.64,0,0,1,0-2.38,11.38,11.38,0,0,0,3.07-7.84,1.71,1.71,0,1,1,3.41,0,15.69,15.69,0,0,1-3.75,10.22A3.7,3.7,0,0,1,954.55,913.61Z" transform="translate(-2)"/><path class="cls-73" d="M956.93,923.16a27.69,27.69,0,0,0-16.36-18.41,28.52,28.52,0,0,0-13-18.75,24.64,24.64,0,0,0-6.81,16.7,23.71,23.71,0,0,0,23.86,23.87A19.75,19.75,0,0,0,956.93,923.16Z" transform="translate(-2)"/><path class="cls-74" d="M933.41,916a17.92,17.92,0,0,1-4.09-10.91,16.5,16.5,0,0,1,5.45-12.27,14.9,14.9,0,0,0-2-2.39,16.71,16.71,0,0,0-5.46,12.62A16.35,16.35,0,0,0,933.41,916Z" transform="translate(-2)"/><path class="cls-74" d="M940.91,905.09v4.77a3.41,3.41,0,1,0,6.82,0v-.68A28,28,0,0,0,940.91,905.09Z" transform="translate(-2)"/><path class="cls-70" d="M956.93,923.16a21.61,21.61,0,0,0-2.73-6.48,16.43,16.43,0,0,1-9.88,3.41,16.88,16.88,0,0,1-17.05-17,16.71,16.71,0,0,1,5.46-12.62,20.87,20.87,0,0,0-5.46-4.09,24.65,24.65,0,0,0-6.82,16.7,23.72,23.72,0,0,0,23.87,23.87A22.83,22.83,0,0,0,956.93,923.16Z" transform="translate(-2)"/><path class="cls-73" d="M955.91,920.09a23.51,23.51,0,0,1-8.52,3.41,3.62,3.62,0,0,0-3.07,3.41h0a22.83,22.83,0,0,0,12.61-3.75Z" transform="translate(-2)"/><path class="cls-71" d="M927.27,886.34a24.65,24.65,0,0,0-6.82,16.71h.35a3.63,3.63,0,0,0,3.4-3.07,21.2,21.2,0,0,1,6.14-11.93A14.56,14.56,0,0,1,927.27,886.34Z" transform="translate(-2)"/><circle class="cls-70" cx="911.64" cy="909.86" r="23.86"/><path class="cls-73" d="M910.23,926.91a23.69,23.69,0,0,0,1,6.82h2.39a23.79,23.79,0,0,0,22.84-30.68h-2.39A23.71,23.71,0,0,0,910.23,926.91Z" transform="translate(-2)"/><path class="cls-71" d="M913.64,886a23.87,23.87,0,1,0,23.86,23.86A23.72,23.72,0,0,0,913.64,886Zm0,40.91a17,17,0,1,1,17-17A16.88,16.88,0,0,1,913.64,926.91Z" transform="translate(-2)"/><path class="cls-70" d="M913.64,933.39h0a23.43,23.43,0,0,0,23.86-23.53h-.34a3.63,3.63,0,0,0-3.41,3.07,20.58,20.58,0,0,1-6.48,12.27,19.24,19.24,0,0,1-10.57,5.12A3,3,0,0,0,913.64,933.39Z" transform="translate(-2)"/><path class="cls-72" d="M913.64,886.34h0a23.43,23.43,0,0,0-23.87,23.52h.34a3.62,3.62,0,0,0,3.41-3.06A20.6,20.6,0,0,1,900,894.52a19.37,19.37,0,0,1,10.57-5.11A3.06,3.06,0,0,0,913.64,886.34Z" transform="translate(-2)"/><path class="cls-73" d="M899,912.25a16.88,16.88,0,0,1,17-17,16.08,16.08,0,0,1,10.91,4.1,17,17,0,0,0-30.34,10.56,16.35,16.35,0,0,0,6.14,13A16,16,0,0,1,899,912.25Z" transform="translate(-2)"/><path class="cls-70" d="M929.32,903.39a19.94,19.94,0,0,1,1.36,6.47,16.88,16.88,0,0,1-17,17,11.6,11.6,0,0,1-3.41-.34v.34a23.69,23.69,0,0,0,1,6.82h2.39a23.79,23.79,0,0,0,22.84-30.68h-2.39A22.54,22.54,0,0,0,929.32,903.39Z" transform="translate(-2)"/><path class="cls-71" d="M923.86,920.43a1.25,1.25,0,0,1-1-.34,1.66,1.66,0,0,1,0-2.39,11.34,11.34,0,0,0,3.07-7.84,1.71,1.71,0,0,1,3.41,0,15.79,15.79,0,0,1-3.75,10.23A3.73,3.73,0,0,1,923.86,920.43Z" transform="translate(-2)"/><g id="Layer_16" data-name="Layer 16"><path class="cls-1" d="M917.17,879.3a3.14,3.14,0,0,1-2.31,1,3,3,0,0,1-1.66-.56l-.16-.12c-.32-.28-1-1-1.81-1.77l-.36-.36h0l-2.15-2.19a3.12,3.12,0,0,1-.78-2,3.07,3.07,0,0,1,.82-2.06,3.18,3.18,0,0,1,2.31-1,3,3,0,0,1,1.85.72l4.44,4.44a3.15,3.15,0,0,1,.63,1.69A3.11,3.11,0,0,1,917.17,879.3Z" transform="translate(-2)"/><path class="cls-1" d="M905.06,844.27l-.19,0-.38-.1-.19,0-.23-.06-.22,0-.35-.07-.55-.1-.4-.06-.28,0a19.45,19.45,0,0,0-2.43-.16l-.84,0c-.28,0-.55,0-.82.06l-.23,0-.23,0-.32,0-.22,0h0l-.33,0h0l-.42.07a18.76,18.76,0,0,0,3.41,37.21h.29a18.8,18.8,0,0,0,9.41-2.7h0c.38-.23.67-.43.86-.57l-2.06-2.07a3.46,3.46,0,0,1-.94-1.87,3.54,3.54,0,0,1,.17-1.72,12.48,12.48,0,0,1-7.74,2.69,12.8,12.8,0,0,1-5.54-1.49,14.43,14.43,0,0,1-2.45-1.62h0a12.1,12.1,0,0,1-4.53-9.4,12.52,12.52,0,0,1,12.52-12.51c7.3,0,12.44,6.39,12.51,12.51a12.22,12.22,0,0,1-2.66,7.57,3.28,3.28,0,0,1,3.17.32,6.25,6.25,0,0,1,.66.47l1.94,2a19.15,19.15,0,0,0,2.31-5,21,21,0,0,0,.81-5.36A18.78,18.78,0,0,0,905.06,844.27Z" transform="translate(-2)"/></g><g id="Layer_17" data-name="Layer 17"><circle class="cls-70" cx="928.68" cy="930.32" r="23.86"/><path class="cls-70" d="M930.68,953.84h0a23.43,23.43,0,0,0,23.87-23.52h-.35a3.62,3.62,0,0,0-3.4,3.07,20.66,20.66,0,0,1-6.48,12.27,19.3,19.3,0,0,1-10.57,5.11A3.06,3.06,0,0,0,930.68,953.84Z" transform="translate(-2)"/><path class="cls-72" d="M930.68,906.8h0a23.42,23.42,0,0,0-23.86,23.52h.34a3.64,3.64,0,0,0,3.41-3.07A20.61,20.61,0,0,1,917.05,915a19.31,19.31,0,0,1,10.56-5.12A3,3,0,0,0,930.68,906.8Z" transform="translate(-2)"/><path class="cls-73" d="M916,932.7a16.88,16.88,0,0,1,17.05-17A16.07,16.07,0,0,1,944,919.75a17,17,0,0,0-30.34,10.57,16.34,16.34,0,0,0,6.13,12.95A16,16,0,0,1,916,932.7Z" transform="translate(-2)"/><path class="cls-75" d="M941.74,940.75a1.94,1.94,0,0,1-1.39.58,1.79,1.79,0,0,1-1-.34l-.09-.07c-.19-.17-.61-.58-1.09-1.06l-.21-.22h0l-1.28-1.31a1.87,1.87,0,0,1-.47-1.22,1.84,1.84,0,0,1,.49-1.24,1.89,1.89,0,0,1,1.39-.58,1.79,1.79,0,0,1,1.1.43l2.67,2.66a1.82,1.82,0,0,1,.37,1A1.89,1.89,0,0,1,941.74,940.75Z" transform="translate(-2)"/><path class="cls-75" d="M934.47,919.73l-.11,0-.23-.06-.12,0-.13,0-.14,0-.21,0-.33-.06-.24,0-.16,0a11.8,11.8,0,0,0-1.46-.09h-.51l-.49,0h-.13l-.14,0-.2,0-.13,0h0l-.2,0h0l-.25,0a11.25,11.25,0,0,0,2.05,22.32h.17a11.21,11.21,0,0,0,5.65-1.62h0c.23-.14.4-.26.52-.34l-1.24-1.24a2.09,2.09,0,0,1-.56-1.12,2.26,2.26,0,0,1,.1-1,7.51,7.51,0,0,1-4.64,1.62,7.69,7.69,0,0,1-3.33-.9,8.23,8.23,0,0,1-1.46-1h0a7.29,7.29,0,0,1-2.71-5.64,7.51,7.51,0,0,1,7.51-7.51,7.7,7.7,0,0,1,7.51,7.51,7.47,7.47,0,0,1-1.6,4.54,2.16,2.16,0,0,1,1-.15,2.4,2.4,0,0,1,.87.34,4.38,4.38,0,0,1,.4.28l1.16,1.2a12.22,12.22,0,0,0,1.39-3,12.73,12.73,0,0,0,.48-3.22A11.26,11.26,0,0,0,934.47,919.73Z" transform="translate(-2)"/><path class="cls-71" d="M930.68,906.45a23.87,23.87,0,1,0,23.87,23.87A23.72,23.72,0,0,0,930.68,906.45Zm0,40.91a17,17,0,1,1,17.05-17A16.88,16.88,0,0,1,930.68,947.36Z" transform="translate(-2)"/></g></g><g id="Layer_18" data-name="Layer 18"><rect class="cls-76" x="1442" y="412.5" width="5" height="235"/><rect class="cls-76" x="1812" y="659" width="5" height="120" transform="translate(3627 1438) rotate(180)"/><rect class="cls-76" x="1002" y="743" width="280" height="5"/><rect class="cls-76" x="469" y="782.5" width="200" height="5"/><rect class="cls-76" x="1052" y="112" width="420" height="5"/><polygon class="cls-76" points="719 255.16 423.27 355.17 419 350.83 714.73 250.84 719 255.16"/><rect class="cls-76" x="1615" y="774" width="200" height="5"/><rect class="cls-76" x="1812" y="241" width="5" height="132" transform="translate(3627 614) rotate(180)"/><rect class="cls-76" x="1615" y="241" width="200" height="5"/><text class="cls-17" transform="translate(1653.32 632.36)">3. <tspan class="cls-77" x="33.55" y="0">C</tspan><tspan class="cls-78" x="54.03" y="0">onfi</tspan><tspan class="cls-79" x="112.61" y="0">r</tspan><tspan x="124.52" y="0">m </tspan><tspan class="cls-80" x="162.18" y="0">P</tspan><tspan class="cls-81" x="180.39" y="0">a</tspan><tspan class="cls-82" x="197.46" y="0">yme</tspan><tspan class="cls-83" x="262.47" y="0">n</tspan><tspan class="cls-82" x="282.31" y="0">t</tspan></text><rect class="cls-76" x="1050" y="254" width="280" height="5"/><rect class="cls-76" x="1469" y="116" width="5" height="40" transform="translate(2941 272) rotate(180)"/><rect class="cls-76" x="272" y="115" width="450" height="5"/><rect class="cls-76" x="272" y="115" width="5" height="80"/><polygon points="477 806.04 477 764.04 435 785.04 477 806.04"/><polygon points="1023 767.04 1023 725.04 981 746.04 1023 767.04"/><polygon points="1628 797.04 1628 755.04 1586 776.04 1628 797.04"/><polygon points="1068 279.04 1068 237.04 1026 258.04 1068 279.04"/><polygon points="442.59 367.77 428.64 328.16 396 361.91 442.59 367.77"/><polygon points="703 95.08 703 137.08 745 116.08 703 95.08"/><polygon points="1490 129 1448 129 1469 171 1490 129"/><polygon points="1423 433 1465 433 1444 391 1423 433"/><polygon points="1834.01 341 1792.01 341 1813.01 383 1834.01 341"/><rect class="cls-76" x="1001.5" y="829" width="280" height="5"/><polygon points="1261 811.08 1261 853.08 1303 832.08 1261 811.08"/><text class="cls-84" transform="translate(1002.49 874.81)"><tspan class="cls-79">R</tspan><tspan x="13.01" y="0">eal-time </tspan><tspan class="cls-85" x="100.32" y="0">P</tspan><tspan class="cls-86" x="112.7" y="0">r</tspan><tspan x="120.65" y="0">i</tspan><tspan class="cls-87" x="126.26" y="0">c</tspan><tspan x="136.87" y="0">e/</tspan><tspan class="cls-88" x="157.13" y="0">V</tspan><tspan x="169.73" y="0">alue O</tspan><tspan class="cls-89" x="233.83" y="0">r</tspan><tspan x="241.44" y="0">cle</tspan></text></g><g id="Layer_19" data-name="Layer 19"><path class="cls-90" d="M1759.81,502.92l17.56-47.42h29.86v29.86Z" transform="translate(-2)"/><path class="cls-91" d="M1874.19,502.92l-47.42-17.56V455.5h29.86Z" transform="translate(-2)"/><path class="cls-92" d="M1817,490.66a48.83,48.83,0,1,1,48.83-48.83A48.89,48.89,0,0,1,1817,490.66Z" transform="translate(-2)"/><path class="cls-93" d="M1817,393v97.66a48.83,48.83,0,0,0,0-97.66Z" transform="translate(-2)"/><path class="cls-94" d="M1774.56,593h-37a14.61,14.61,0,0,1-14.35-12.38l-6-40.47a14.52,14.52,0,0,1,14.35-16.68h49.1A14.52,14.52,0,0,1,1795,540.15l-6,40.47A14.61,14.61,0,0,1,1774.56,593Z" transform="translate(-2)"/><path class="cls-95" d="M1764.35,570.34h-16.58l-15.43-46.87h47.44Z" transform="translate(-2)"/><path class="cls-96" d="M1756.06,535.19a26.57,26.57,0,1,1,26.56-26.56A26.59,26.59,0,0,1,1756.06,535.19Z" transform="translate(-2)"/><path class="cls-90" d="M1896.44,593h-37a14.61,14.61,0,0,1-14.35-12.38l-6-40.47a14.52,14.52,0,0,1,14.35-16.68h49.1a14.53,14.53,0,0,1,14.35,16.68l-6.06,40.47A14.59,14.59,0,0,1,1896.44,593Z" transform="translate(-2)"/><path class="cls-91" d="M1886.23,570.34h-16.58l-15.44-46.87h47.45Z" transform="translate(-2)"/><path class="cls-97" d="M1877.94,535.19a26.57,26.57,0,1,1,26.56-26.56A26.59,26.59,0,0,1,1877.94,535.19Z" transform="translate(-2)"/><polygon class="cls-98" points="1810.95 458.99 1793 441.04 1801.28 432.75 1810.95 442.42 1829.89 423.48 1838.17 431.77 1810.95 458.99"/><polygon class="cls-99" points="1815 454.94 1838.17 431.77 1829.89 423.48 1815 438.37 1815 454.94"/></g><g id="Layer_20" data-name="Layer 20"><text class="cls-17" transform="translate(244.4 916.13)"><tspan class="cls-100">M</tspan><tspan class="cls-19" x="29.16" y="0">e</tspan><tspan class="cls-89" x="47.2" y="0">r</tspan><tspan x="58.61" y="0">cha</tspan><tspan class="cls-83" x="112.07" y="0">n</tspan><tspan x="131.9" y="0">t</tspan></text><text class="cls-17" transform="translate(740.02 954.21)">E<tspan class="cls-101" x="17.71" y="0">x</tspan><tspan x="33.84" y="0">change</tspan></text><text class="cls-17" transform="translate(1299.87 918.13)"><tspan class="cls-102">P</tspan><tspan class="cls-103" x="18.22" y="0">a</tspan><tspan x="35.28" y="0">yme</tspan><tspan class="cls-83" x="100.3" y="0">n</tspan><tspan x="120.13" y="0">t </tspan><tspan class="cls-104" x="139.68" y="0">P</tspan><tspan class="cls-105" x="158.25" y="0">r</tspan><tspan class="cls-78" x="169.67" y="0">o</tspan><tspan class="cls-87" x="189.43" y="0">c</tspan><tspan x="205.34" y="0">essor</tspan></text><text class="cls-17" transform="translate(1039.68 723.62)"><tspan class="cls-100">S</tspan><tspan class="cls-82" x="17.96" y="0">ettle </tspan><tspan class="cls-102" x="93.99" y="0">P</tspan><tspan class="cls-103" x="112.21" y="0">a</tspan><tspan x="129.27" y="0">yme</tspan><tspan class="cls-83" x="194.29" y="0">n</tspan><tspan x="214.13" y="0">t</tspan></text><text class="cls-17" transform="translate(1428.37 606.04) rotate(-90)"><tspan class="cls-79">R</tspan><tspan x="19.51" y="0">esponse</tspan></text><text class="cls-17" transform="translate(1351.98 371.89)"><tspan class="cls-102">P</tspan><tspan class="cls-103" x="18.22" y="0">a</tspan><tspan x="35.28" y="0">yme</tspan><tspan class="cls-83" x="100.3" y="0">n</tspan><tspan x="120.13" y="0">t </tspan><tspan class="cls-106" x="139.68" y="0">G</tspan><tspan class="cls-83" x="163.22" y="0">a</tspan><tspan class="cls-107" x="180.43" y="0">t</tspan><tspan class="cls-82" x="192.13" y="0">e</tspan><tspan class="cls-108" x="210.17" y="0">w</tspan><tspan class="cls-81" x="236.52" y="0">a</tspan><tspan x="253.58" y="0">y</tspan></text><text class="cls-17" transform="translate(1132.36 95.34)">2. <tspan class="cls-77" x="33.55" y="0">C</tspan><tspan class="cls-78" x="54.03" y="0">o</tspan><tspan class="cls-83" x="73.8" y="0">n</tspan><tspan class="cls-82" x="93.63" y="0">ta</tspan><tspan class="cls-109" x="122.9" y="0">c</tspan><tspan x="139.5" y="0">t </tspan><tspan class="cls-110" x="159.04" y="0">G</tspan><tspan class="cls-83" x="182.59" y="0">a</tspan><tspan class="cls-107" x="199.8" y="0">t</tspan><tspan x="211.5" y="0">e</tspan><tspan class="cls-108" x="229.53" y="0">w</tspan><tspan class="cls-103" x="255.88" y="0">a</tspan><tspan x="272.95" y="0">y</tspan></text><text class="cls-17" transform="translate(1129.7 239.38)"><tspan class="cls-79">R</tspan><tspan x="19.51" y="0">esponse</tspan></text><text class="cls-17" transform="translate(784.32 310.38)">Online <tspan class="cls-111" x="107.35" y="0">S</tspan><tspan class="cls-112" x="124.99" y="0">t</tspan><tspan x="136.69" y="0">o</tspan><tspan class="cls-18" x="156.45" y="0">r</tspan><tspan x="167.87" y="0">e</tspan></text><text class="cls-17" transform="translate(167.79 482.43)"><tspan class="cls-113">C</tspan><tspan x="20.45" y="0">us</tspan><tspan class="cls-107" x="54.54" y="0">t</tspan><tspan x="66.24" y="0">omers</tspan></text><text class="cls-17" transform="translate(499.37 310.66) rotate(-19)"><tspan class="cls-114">R</tspan><tspan x="19.51" y="0">esponse</tspan></text></g><g id="Layer_21" data-name="Layer 21"><circle class="cls-70" cx="1911.91" cy="572" r="25"/><path class="cls-70" d="M1913.91,596.64h0a24.54,24.54,0,0,0,25-24.64h-.36a3.81,3.81,0,0,0-3.57,3.21,21.57,21.57,0,0,1-6.78,12.86,20.28,20.28,0,0,1-11.08,5.36A3.2,3.2,0,0,0,1913.91,596.64Z" transform="translate(-2)"/><path class="cls-72" d="M1913.91,547.36h0a24.54,24.54,0,0,0-25,24.64h.36a3.81,3.81,0,0,0,3.57-3.21,21.57,21.57,0,0,1,6.78-12.86,20.28,20.28,0,0,1,11.07-5.36A3.2,3.2,0,0,0,1913.91,547.36Z" transform="translate(-2)"/><path class="cls-73" d="M1898.55,574.5a17.69,17.69,0,0,1,17.86-17.86,16.84,16.84,0,0,1,11.43,4.29A17.8,17.8,0,0,0,1896.05,572a17.12,17.12,0,0,0,6.43,13.57A16.74,16.74,0,0,1,1898.55,574.5Z" transform="translate(-2)"/><path class="cls-75" d="M1925.49,582.93a2,2,0,0,1-1.46.61,2,2,0,0,1-1-.36l-.1-.08c-.2-.17-.64-.6-1.13-1.1-.08-.08-.16-.15-.23-.23h0l-1.34-1.37a1.93,1.93,0,0,1-.49-1.28,2,2,0,0,1,.51-1.3,2,2,0,0,1,1.45-.61,2,2,0,0,1,1.17.46l2.79,2.79a2,2,0,0,1,.39,1.06A2,2,0,0,1,1925.49,582.93Z" transform="translate(-2)"/><path class="cls-75" d="M1917.88,560.91l-.12,0-.24-.06-.12,0-.14,0-.15,0-.21,0-.35-.07-.25,0-.18,0a12.82,12.82,0,0,0-1.53-.1h-.52l-.52,0h-.14l-.15,0-.2,0-.14,0h0l-.2,0h0l-.27,0a11.79,11.79,0,0,0,2.14,23.38h.19a11.67,11.67,0,0,0,5.91-1.7h0l.54-.35-1.3-1.31a2.16,2.16,0,0,1-.59-1.17,2.24,2.24,0,0,1,.11-1.08,8,8,0,0,1-4.87,1.69,8.44,8.44,0,0,1-5-2h0a7.61,7.61,0,0,1-2.84-5.91,7.86,7.86,0,0,1,7.86-7.87,8.06,8.06,0,0,1,7.87,7.87,7.75,7.75,0,0,1-1.67,4.76,2.1,2.1,0,0,1,1.08-.15,2.28,2.28,0,0,1,.91.35,3.12,3.12,0,0,1,.41.29l1.22,1.25a11.81,11.81,0,0,0,1.46-3.13,13.1,13.1,0,0,0,.51-3.37A11.79,11.79,0,0,0,1917.88,560.91Z" transform="translate(-2)"/><path class="cls-71" d="M1913.91,547a25,25,0,1,0,25,25A24.84,24.84,0,0,0,1913.91,547Zm0,42.86A17.86,17.86,0,1,1,1931.77,572,17.69,17.69,0,0,1,1913.91,589.86Z" transform="translate(-2)"/></g></svg>