<svg id="QPay" xmlns="http://www.w3.org/2000/svg" xmlns:xlink="http://www.w3.org/1999/xlink" viewBox="0 0 500 500"><defs><style>.cls-1{fill:url(#linear-gradient);}.cls-2{fill:url(#radial-gradient);}</style><linearGradient id="linear-gradient" x1="508.92" y1="-70.81" x2="642.9" y2="-70.81" gradientTransform="matrix(1, 0, 0, -1, -150.55, 351.2)" gradientUnits="userSpaceOnUse"><stop offset="0.36" stop-color="#0075f9"/><stop offset="0.65" stop-color="#0069e5"/><stop offset="0.99" stop-color="#005ed3"/></linearGradient><radialGradient id="radial-gradient" cx="400.77" cy="101.75" r="250.05" gradientTransform="matrix(1, 0, 0, -1, -150.55, 351.16)" gradientUnits="userSpaceOnUse"><stop offset="0.3" stop-color="#bf2502"/><stop offset="0.88" stop-color="#ff441a"/></radialGradient></defs><title>qpay 500px</title><path id="q" class="cls-1" d="M481.45,476.23c-1,1.12-13,13.55-30.87,12.92a40.7,40.7,0,0,1-22.12-7.5c-1-.71-1.67-1.3-2.08-1.67-4.26-3.63-13.6-12.85-24.16-23.48-1.6-1.6-3.2-3.2-4.8-4.84l-.08-.08c-9.89-10-20.36-20.73-28.54-29.15a40.4,40.4,0,0,1,.42-54.64c.92-1,13-13.55,30.87-12.93a40.83,40.83,0,0,1,24.62,9.6L484,423.68a41.57,41.57,0,0,1,8.35,22.52C493.21,463.21,483,474.52,481.45,476.23Z" transform="translate(-0.22 0.55)"/><path id="o" class="cls-2" d="M320,9.28l-2.53-.72c-1.69-.47-3.38-.92-5.09-1.35l-2.55-.64-3-.72-3-.68c-1.52-.33-3-.65-4.59-1q-3.69-.73-7.43-1.35-2.67-.45-5.36-.83c-1.2-.18-2.41-.35-3.62-.5A253.61,253.61,0,0,0,250.3-.55q-5.64,0-11.22.26T228.23.42l-3,.29c-1,.1-2.06.2-3.08.32-1.47.16-2.92.34-4.38.53-1,.13-1.94.26-2.9.42h0c-1.44.2-2.89.42-4.32.65h0q-2.79.45-5.57,1C88.47,24.9.22,126.87.22,249.45c0,138.08,112,250,250.09,250,1.29,0,2.58,0,3.87,0a249,249,0,0,0,125.51-36l.12-.07c5-3.11,8.91-5.75,11.52-7.55Q377.5,442,363.75,428.18a45.69,45.69,0,0,1-10.18-47.79c-16.06,12.22-53.65,37-103.26,35.78-24.55-.59-50.21-7.51-73.84-19.81a184.92,184.92,0,0,1-32.61-21.63.35.35,0,0,1-.09-.07c-35.23-29.22-60.34-72.47-60.34-125.31,0-92.13,74.72-166.82,166.88-166.82,97.38,0,165.93,85.2,166.89,166.82.54,43.29-18.07,78-35.46,100.93a47.18,47.18,0,0,1,22.9-3.22c7.05.84,14.08,4.25,19.35,7.47a73,73,0,0,1,8.76,6.26s10.1,10.38,25.87,26.52a257.58,257.58,0,0,0,30.79-66.39s10.81-35.33,10.81-71.44C500.22,135.6,424.11,39.46,320,9.28Z" transform="translate(-0.22 0.55)"/></svg>