<svg id="Layer_1" data-name="Layer 1" xmlns="http://www.w3.org/2000/svg" viewBox="0 0 200 226.11"><defs><style>.cls-1{fill:#dbd9dc;}.cls-2{fill:#ff8188;}.cls-3{fill:#fcc062;}.cls-4{fill:#fdd089;}.cls-5{fill:#674735;}.cls-6{fill:#895f47;}.cls-7{fill:#b67f5f;}.cls-8{fill:#ffe17d;}.cls-9{fill:#bfa95e;}.cls-10{fill:#ffaf2e;}.cls-11{font-size:21px;font-family:MyriadPro-Regular, Myriad Pro;letter-spacing:0.01em;}.cls-12{letter-spacing:0em;}.cls-13{letter-spacing:-0.01em;}.cls-14{letter-spacing:0em;}.cls-15{letter-spacing:0em;}</style></defs><title>merchant</title><path class="cls-1" d="M141.33,178.27H110.76A22.76,22.76,0,0,0,88,201v27.24H228V201a22.76,22.76,0,0,0-22.76-22.76H174.67" transform="translate(-28 -28.27)"/><path class="cls-2" d="M205.24,178.27H188v36.66H128V178.27H110.76a23,23,0,0,0-2.76.18v49.82H208V178.45A23,23,0,0,0,205.24,178.27Z" transform="translate(-28 -28.27)"/><path class="cls-3" d="M141.33,161.6v16.67a16.67,16.67,0,0,0,33.34,0V161.6" transform="translate(-28 -28.27)"/><path class="cls-4" d="M153,194.09a16.63,16.63,0,0,0,11.67-15.82V161.6H141.33v16.67A16.63,16.63,0,0,0,153,194.09Z" transform="translate(-28 -28.27)"/><path class="cls-4" d="M118,128.27h-3.33a13.34,13.34,0,1,1,0-26.67H118" transform="translate(-28 -28.27)"/><path class="cls-4" d="M198,101.6h3.33a13.34,13.34,0,1,1,0,26.67H198" transform="translate(-28 -28.27)"/><path class="cls-3" d="M201.33,88.27V121.6a43.33,43.33,0,0,1-86.66,0V88.27Z" transform="translate(-28 -28.27)"/><path class="cls-4" d="M153,164.62a43.32,43.32,0,0,0,38.33-43V88.27H114.67V121.6A43.32,43.32,0,0,0,153,164.62Z" transform="translate(-28 -28.27)"/><path class="cls-5" d="M201.33,88.27l-20,26.66H134.67l-20-26.66a40,40,0,0,1,40-40h6.66A40,40,0,0,1,201.33,88.27Z" transform="translate(-28 -28.27)"/><path class="cls-6" d="M151.33,48.43a40,40,0,0,0-36.66,39.84l20,26.66H168l20-26.66A40,40,0,0,0,151.33,48.43Z" transform="translate(-28 -28.27)"/><path class="cls-6" d="M114.67,88.27h86.66a40,40,0,0,0-40-40h-6.66A40,40,0,0,0,114.67,88.27Z" transform="translate(-28 -28.27)"/><path class="cls-7" d="M150.86,48.46a40,40,0,0,0-36.19,39.81H188A39.94,39.94,0,0,0,150.86,48.46Z" transform="translate(-28 -28.27)"/><path class="cls-8" d="M81.33,121.6A26.67,26.67,0,1,1,54.67,94.93,26.67,26.67,0,0,1,81.33,121.6Z" transform="translate(-28 -28.27)"/><path class="cls-8" d="M81.33,54.93A26.67,26.67,0,1,1,54.67,28.27,26.67,26.67,0,0,1,81.33,54.93Z" transform="translate(-28 -28.27)"/><path class="cls-7" d="M158,151.6a13.35,13.35,0,0,1-13.33-13.33h6.66a6.67,6.67,0,0,0,13.34,0h6.66A13.35,13.35,0,0,1,158,151.6Z" transform="translate(-28 -28.27)"/><path class="cls-9" d="M58,81.37" transform="translate(-28 -28.27)"/><path class="cls-9" d="M51.33,81.37" transform="translate(-28 -28.27)"/><path class="cls-10" d="M71,70.53a3,3,0,0,1-2.16.91,2.87,2.87,0,0,1-1.55-.53l-.14-.11c-.3-.26-1-.9-1.7-1.65l-.33-.34h0l-2-2a2.85,2.85,0,0,1,0-3.83A3.07,3.07,0,0,1,65.27,62a2.85,2.85,0,0,1,1.72.68l4.15,4.14a2.93,2.93,0,0,1,.58,1.58A3,3,0,0,1,71,70.53Z" transform="translate(-28 -28.27)"/><path class="cls-10" d="M59.66,37.83l-.18,0-.35-.09-.18,0-.22,0-.21,0-.32-.07c-.17,0-.34-.07-.52-.09s-.25,0-.37-.06l-.26,0a18.82,18.82,0,0,0-2.27-.14H54l-.76.05-.22,0-.21,0-.31,0-.2,0h0l-.3,0h0l-.39.06a17.51,17.51,0,0,0,3.18,34.73h.27a17.52,17.52,0,0,0,8.79-2.52h0c.35-.21.62-.4.8-.53l-1.93-1.93a3.25,3.25,0,0,1-.87-1.75,3.31,3.31,0,0,1,.16-1.6,11.69,11.69,0,0,1-7.23,2.51,12,12,0,0,1-5.17-1.39,13.65,13.65,0,0,1-2.28-1.51h0a11.31,11.31,0,0,1-4.22-8.77A11.68,11.68,0,0,1,54.78,43c6.82,0,11.62,6,11.68,11.69A11.47,11.47,0,0,1,64,61.71a3.25,3.25,0,0,1,1.6-.22,3.48,3.48,0,0,1,1.36.52,5.13,5.13,0,0,1,.61.44l1.81,1.86a18.19,18.19,0,0,0,2.16-4.65,19.8,19.8,0,0,0,.75-5A17.52,17.52,0,0,0,59.66,37.83Z" transform="translate(-28 -28.27)"/><path class="cls-10" d="M71,137.53a3,3,0,0,1-2.16.91,2.87,2.87,0,0,1-1.55-.53l-.14-.11c-.3-.26-1-.9-1.7-1.65l-.33-.34h0l-2-2a2.85,2.85,0,0,1,0-3.83,3.07,3.07,0,0,1,2.17-.91,2.85,2.85,0,0,1,1.72.68l4.15,4.14a2.93,2.93,0,0,1,.58,1.58A3,3,0,0,1,71,137.53Z" transform="translate(-28 -28.27)"/><path class="cls-10" d="M59.66,104.83l-.18,0-.35-.09-.18,0-.22,0-.21,0-.32-.07c-.17,0-.34-.07-.52-.09s-.25,0-.37-.06l-.26,0a18.82,18.82,0,0,0-2.27-.14H54l-.76,0-.22,0-.21,0-.31,0-.2,0h0l-.3.05h0l-.39.06a17.51,17.51,0,0,0,3.18,34.73h.27a17.52,17.52,0,0,0,8.79-2.52h0c.35-.21.62-.4.8-.53l-1.93-1.93a3.25,3.25,0,0,1-.87-1.75,3.31,3.31,0,0,1,.16-1.6,11.69,11.69,0,0,1-7.23,2.51,12,12,0,0,1-5.17-1.39,13.65,13.65,0,0,1-2.28-1.51h0a11.31,11.31,0,0,1-4.22-8.77A11.68,11.68,0,0,1,54.78,110c6.82,0,11.62,6,11.68,11.69A11.47,11.47,0,0,1,64,128.71a3.25,3.25,0,0,1,1.6-.22,3.48,3.48,0,0,1,1.36.52,5.13,5.13,0,0,1,.61.44l1.81,1.86a18.19,18.19,0,0,0,2.16-4.65,19.8,19.8,0,0,0,.75-5A17.52,17.52,0,0,0,59.66,104.83Z" transform="translate(-28 -28.27)"/><text class="cls-11" transform="translate(86.4 220.86)">M<tspan class="cls-12" x="17.01" y="0">e</tspan><tspan class="cls-13" x="27.53" y="0">r</tspan><tspan class="cls-12" x="34.19" y="0">cha</tspan><tspan class="cls-14" x="65.37" y="0">n</tspan><tspan class="cls-15" x="76.94" y="0">t</tspan></text></svg>